<?xml version="1.0" standalone="no"?>
<!DOCTYPE svg PUBLIC "-//W3C//DTD SVG 20010904//EN"
 "http://www.w3.org/TR/2001/REC-SVG-20010904/DTD/svg10.dtd">
<svg version="1.0" xmlns="http://www.w3.org/2000/svg"
 width="512.000000pt" height="512.000000pt" viewBox="0 0 512.000000 512.000000"
 preserveAspectRatio="xMidYMid meet">

<g transform="translate(0.000000,512.000000) scale(0.100000,-0.100000)"
fill="#000000" stroke="none">
<path d="M2385 5109 c-574 -79 -1035 -527 -1130 -1098 -14 -80 -16 -139 -12
-265 6 -203 39 -341 121 -512 74 -153 141 -249 261 -370 190 -191 414 -311
690 -370 110 -24 369 -24 485 -1 462 91 839 410 1004 849 57 154 71 238 71
453 0 185 -2 208 -27 308 -129 510 -521 886 -1033 992 -95 20 -332 28 -430 14z
m640 -181 c-13 -39 -165 -579 -165 -588 0 -6 62 -10 180 -10 124 0 180 -3 180
-11 0 -14 -819 -1770 -831 -1783 -5 -6 -9 212 -9 537 l0 547 -231 0 c-215 0
-230 1 -225 18 2 9 71 306 152 660 l148 642 403 0 c317 0 401 -3 398 -12z"/>
<path d="M2365 4758 c-3 -7 -54 -224 -113 -483 l-109 -470 208 -3 209 -2 2
-240 3 -239 192 412 192 412 -165 3 c-163 2 -165 3 -159 23 25 78 165 576 165
586 0 19 -419 19 -425 1z"/>
<path d="M29 2971 l-29 -29 0 -1442 0 -1442 29 -29 c29 -29 31 -29 141 -29
111 0 143 7 167 39 10 12 12 342 13 1464 l0 1448 -25 24 c-23 24 -30 25 -145
25 -121 0 -122 0 -151 -29z"/>
<path d="M4795 2975 l-25 -24 0 -1448 c1 -1122 3 -1452 13 -1464 24 -32 56
-39 167 -39 110 0 112 0 141 29 l29 29 0 1442 0 1442 -29 29 c-29 29 -30 29
-151 29 -115 0 -122 -1 -145 -25z"/>
<path d="M3646 2763 c-71 -77 -196 -179 -301 -244 l-79 -49 662 0 662 0 0 175
0 175 -444 2 -444 3 -56 -62z"/>
<path d="M530 2645 l0 -175 663 0 662 1 -54 32 c-99 59 -215 149 -300 234
l-84 83 -443 0 -444 0 0 -175z"/>
<path d="M530 2120 l0 -180 2030 0 2030 0 0 180 0 180 -2030 0 -2030 0 0 -180z"/>
<path d="M530 1590 l0 -180 2030 0 2030 0 0 180 0 180 -2030 0 -2030 0 0 -180z"/>
<path d="M530 1060 l0 -180 2030 0 2030 0 0 180 0 180 -2030 0 -2030 0 0 -180z"/>
<path d="M530 530 l0 -180 2030 0 2030 0 0 180 0 180 -2030 0 -2030 0 0 -180z"/>
</g>
</svg>
