<?xml version="1.0" encoding="UTF-8" standalone="no"?>
<svg
   version="1.0"
   width="512.000000pt"
   height="512.000000pt"
   viewBox="0 0 512.000000 512.000000"
   preserveAspectRatio="xMidYMid meet"
   id="svg7"
   sodipodi:docname="speed.svg"
   inkscape:export-filename="speed.png"
   inkscape:export-xdpi="96"
   inkscape:export-ydpi="96"
   inkscape:version="1.4 (86a8ad7, 2024-10-11)"
   xmlns:inkscape="http://www.inkscape.org/namespaces/inkscape"
   xmlns:sodipodi="http://sodipodi.sourceforge.net/DTD/sodipodi-0.dtd"
   xmlns="http://www.w3.org/2000/svg"
   xmlns:svg="http://www.w3.org/2000/svg">
  <defs
     id="defs7" />
  <sodipodi:namedview
     id="namedview7"
     pagecolor="#ffffff"
     bordercolor="#000000"
     borderopacity="0.25"
     inkscape:showpageshadow="2"
     inkscape:pageopacity="0.0"
     inkscape:pagecheckerboard="0"
     inkscape:deskcolor="#d1d1d1"
     inkscape:document-units="pt"
     inkscape:zoom="1.1821289"
     inkscape:cx="340.91037"
     inkscape:cy="341.33333"
     inkscape:window-width="1920"
     inkscape:window-height="1009"
     inkscape:window-x="-8"
     inkscape:window-y="-8"
     inkscape:window-maximized="1"
     inkscape:current-layer="svg7" />
  <g
     transform="translate(0.000000,512.000000) scale(0.100000,-0.100000)"
     fill="#000000"
     stroke="none"
     id="g7"
     style="fill:#27abe3;fill-opacity:1">
    <path
       d="M2320 4489 c-418 -48 -837 -231 -1150 -502 l-44 -38 218 -218 219 -219 91 69 c179 135 420 239 636 274 58 9 115 19 128 21 l22 4 0 310 0 310 -22 -1 c-13 -1 -57 -5 -98 -10z"
       id="path1"
       style="fill:#27abe3;fill-opacity:1" />
    <path
       d="M2672 4188 l3 -313 30 -3 c327 -28 670 -186 909 -419 45 -43 96 -97 113 -119 l33 -41 -520 -387 c-700 -521 -896 -672 -927 -712 -58 -77 -71 -200 -29 -289 28 -62 97 -126 159 -150 63 -24 165 -18 230 14 65 31 139 120 1245 1475 l342 418 -33 41 c-117 148 -312 324 -487 440 -299 197 -629 313 -1008 352 l-62 7 2 -314z"
       id="path2"
       style="fill:#27abe3;fill-opacity:1" />
    <path
       d="M882 3693 c-201 -253 -331 -514 -407 -818 -29 -114 -39 -176 -60 -362 l-5 -43 314 0 313 0 7 76 c22 243 149 542 319 754 l37 45 -218 218 c-119 119 -220 217 -224 217 -3 0 -38 -39 -76 -87z"
       id="path3"
       style="fill:#27abe3;fill-opacity:1" />
    <path
       d="M4199 3224 c-107 -131 -202 -249 -213 -262 -18 -23 -18 -25 17 -130 47 -140 66 -232 76 -370 24 -345 -64 -678 -256 -958 -58 -86 -67 -105 -67 -145 -1 -27 5 -53 14 -64 8 -10 89 -80 179 -156 112 -95 174 -141 196 -145 54 -10 96 18 157 104 211 296 339 623 389 992 19 135 16 429 -5 568 -22 145 -64 310 -111 437 -39 106 -134 304 -164 343 l-17 24 -195 -238z"
       id="path4"
       style="fill:#27abe3;fill-opacity:1" />
    <path
       d="M414 2203 c3 -21 8 -67 11 -103 22 -229 116 -532 231 -750 54 -102 182 -296 217 -328 29 -27 82 -38 117 -24 35 14 331 266 352 300 33 51 24 89 -48 197 -141 213 -238 479 -256 705 l-3 35 -313 3 -314 2 6 -37z"
       id="path5"
       style="fill:#27abe3;fill-opacity:1" />
    <path
       d="M2067 1290 c-53 -42 -53 -132 -1 -181 l26 -24 448 -3 c375 -2 455 0 484 12 73 30 87 134 26 189 l-30 27 -464 0 c-452 0 -464 -1 -489 -20z"
       id="path6"
       style="fill:#27abe3;fill-opacity:1" />
    <path
       d="M1454 816 c-26 -26 -34 -42 -34 -69 0 -53 16 -85 52 -107 32 -20 51 -20 1083 -20 813 0 1055 3 1074 13 80 41 86 163 9 203 -23 12 -193 14 -1089 14 l-1061 0 -34 -34z"
       id="path7"
       style="fill:#27abe3;fill-opacity:1" />
  </g>
</svg>
