<?xml version="1.0" encoding="UTF-8" standalone="no"?>
<svg
   version="1.0"
   width="512.000000pt"
   height="512.000000pt"
   viewBox="0 0 512.000000 512.000000"
   preserveAspectRatio="xMidYMid meet"
   id="svg1"
   sodipodi:docname="accuracy.svg"
   inkscape:export-filename="accuracy.png"
   inkscape:export-xdpi="96"
   inkscape:export-ydpi="96"
   inkscape:version="1.4 (86a8ad7, 2024-10-11)"
   xmlns:inkscape="http://www.inkscape.org/namespaces/inkscape"
   xmlns:sodipodi="http://sodipodi.sourceforge.net/DTD/sodipodi-0.dtd"
   xmlns="http://www.w3.org/2000/svg"
   xmlns:svg="http://www.w3.org/2000/svg">
  <defs
     id="defs1" />
  <sodipodi:namedview
     id="namedview1"
     pagecolor="#ffffff"
     bordercolor="#000000"
     borderopacity="0.25"
     inkscape:showpageshadow="2"
     inkscape:pageopacity="0.0"
     inkscape:pagecheckerboard="0"
     inkscape:deskcolor="#d1d1d1"
     inkscape:document-units="pt"
     inkscape:zoom="1.1821289"
     inkscape:cx="340.91037"
     inkscape:cy="341.33333"
     inkscape:window-width="1920"
     inkscape:window-height="1009"
     inkscape:window-x="-8"
     inkscape:window-y="-8"
     inkscape:window-maximized="1"
     inkscape:current-layer="svg1" />
  <g
     transform="translate(0.000000,512.000000) scale(0.100000,-0.100000)"
     fill="#000000"
     stroke="none"
     id="g1"
     style="fill:#27abe3;fill-opacity:1">
    <path
       d="M2488 4981 c-53 -17 -98 -53 -126 -99 -27 -47 -27 -48 -30 -264 l-3 -217 -37 -6 c-417 -69 -733 -223 -1016 -495 -220 -212 -373 -449 -470 -727 -36 -106 -86 -320 -86 -373 l0 -30 -218 0 c-210 0 -221 -1 -263 -23 -24 -13 -57 -43 -74 -66 -27 -38 -30 -51 -30 -116 0 -65 3 -78 30 -116 55 -77 78 -84 333 -87 l222 -3 0 -26 c0 -52 50 -272 86 -373 159 -458 487 -833 918 -1050 187 -95 354 -147 588 -185 l36 -6 4 -217 c3 -217 3 -217 31 -264 80 -137 274 -137 354 0 28 47 28 47 31 264 l4 217 26 5 c15 3 47 8 72 11 80 12 242 56 340 92 596 223 1040 740 1165 1359 14 67 25 133 25 148 l0 26 209 0 c132 0 220 4 242 12 91 31 145 111 137 204 -6 73 -45 129 -117 166 l-53 28 -217 0 -216 0 -18 110 c-126 776 -751 1392 -1544 1520 l-71 12 -4 207 c-3 199 -4 209 -29 256 -42 82 -151 131 -231 106z m-148 -1254 l0 -204 -62 -17 c-82 -23 -210 -83 -285 -134 -189 -128 -326 -320 -388 -544 l-16 -58 -205 0 -204 0 6 43 c4 23 18 80 31 127 133 467 508 834 983 965 47 13 97 24 113 24 l27 1 0 -203z m595 168 c50 -14 144 -52 210 -84 378 -183 653 -521 750 -924 14 -56 25 -105 25 -110 0 -4 -93 -6 -206 -5 l-206 3 -23 75 c-31 104 -56 159 -121 259 -127 194 -343 351 -551 400 l-53 13 0 205 0 206 43 -6 c23 -3 83 -18 132 -32z m-1324 -1607 c43 -145 133 -301 238 -411 101 -107 264 -205 414 -248 l77 -23 0 -204 0 -204 -47 7 c-154 23 -391 125 -543 234 -106 76 -233 201 -317 311 -68 90 -167 283 -202 390 -17 53 -51 197 -51 216 0 2 92 4 205 4 l204 0 22 -72z m2309 65 c0 -5 -11 -53 -24 -109 -25 -102 -67 -217 -110 -302 -88 -174 -273 -387 -434 -502 -154 -110 -392 -212 -547 -236 l-45 -6 0 204 0 205 63 17 c98 27 254 109 343 179 166 132 285 323 340 545 3 9 53 12 209 12 113 0 205 -3 205 -7z"
       id="path1"
       style="fill:#27abe3;fill-opacity:1" />
  </g>
</svg>
