<?xml version="1.0" encoding="UTF-8" standalone="no"?>
<svg
   version="1.0"
   width="512.000000pt"
   height="512.000000pt"
   viewBox="0 0 512.000000 512.000000"
   preserveAspectRatio="xMidYMid meet"
   id="svg2"
   sodipodi:docname="battery.svg"
   inkscape:export-filename="battery.png"
   inkscape:export-xdpi="96"
   inkscape:export-ydpi="96"
   inkscape:version="1.4 (86a8ad7, 2024-10-11)"
   xmlns:inkscape="http://www.inkscape.org/namespaces/inkscape"
   xmlns:sodipodi="http://sodipodi.sourceforge.net/DTD/sodipodi-0.dtd"
   xmlns="http://www.w3.org/2000/svg"
   xmlns:svg="http://www.w3.org/2000/svg">
  <defs
     id="defs2" />
  <sodipodi:namedview
     id="namedview2"
     pagecolor="#ffffff"
     bordercolor="#000000"
     borderopacity="0.25"
     inkscape:showpageshadow="2"
     inkscape:pageopacity="0.0"
     inkscape:pagecheckerboard="0"
     inkscape:deskcolor="#d1d1d1"
     inkscape:document-units="pt"
     inkscape:zoom="1.1821289"
     inkscape:cx="340.91037"
     inkscape:cy="341.33333"
     inkscape:window-width="1920"
     inkscape:window-height="1009"
     inkscape:window-x="-8"
     inkscape:window-y="-8"
     inkscape:window-maximized="1"
     inkscape:current-layer="svg2" />
  <g
     transform="translate(0.000000,512.000000) scale(0.100000,-0.100000)"
     fill="#000000"
     stroke="none"
     id="g2"
     style="fill:#27abe3;fill-opacity:1">
    <path
       d="M2106 5104 c-81 -25 -153 -82 -198 -155 -25 -39 -48 -127 -48 -179 l0 -47 -97 -6 c-342 -20 -628 -244 -730 -572 l-28 -90 0 -1695 0 -1695 28 -90 c80 -259 283 -462 542 -542 l90 -28 895 0 895 0 90 28 c331 102 565 404 569 732 1 89 -2 104 -23 138 -13 21 -42 50 -64 65 -34 23 -52 27 -107 27 -55 0 -73 -4 -107 -27 -59 -39 -82 -82 -94 -178 -23 -190 -114 -312 -273 -367 -47 -17 -108 -18 -891 -18 l-840 0 -58 23 c-111 45 -195 133 -234 246 -17 48 -18 138 -18 1686 0 1548 1 1638 18 1686 39 113 124 202 234 245 51 20 83 23 263 28 193 6 207 7 243 30 21 13 50 42 65 64 25 38 27 49 30 174 l4 133 298 0 298 0 4 -133 c3 -125 5 -136 30 -174 15 -22 44 -51 65 -64 36 -23 50 -24 243 -30 180 -5 212 -8 263 -28 106 -42 184 -120 230 -232 l22 -54 5 -1130 5 -1130 24 -38 c13 -21 42 -50 64 -65 34 -22 52 -27 106 -27 79 0 128 25 169 88 l27 41 0 1155 0 1156 -28 90 c-102 328 -388 552 -729 572 l-98 6 0 47 c0 94 -44 194 -111 256 -101 91 -119 94 -593 93 -326 0 -410 -3 -450 -15z"
       id="path1"
       style="fill:#27abe3;fill-opacity:1" />
    <path
       d="M2105 2818 c-126 -226 -235 -425 -242 -442 -19 -52 -15 -100 15 -157 22 -43 38 -59 81 -81 l53 -28 219 0 c121 0 219 -3 219 -7 0 -5 -61 -176 -135 -382 -74 -205 -135 -379 -135 -385 0 -38 64 -57 107 -33 33 19 973 1097 990 1137 27 62 -2 149 -60 183 -15 8 -100 14 -278 17 l-256 5 178 285 c98 157 178 288 178 293 1 4 -158 7 -351 7 l-353 -1 -230 -411z"
       id="path2"
       style="fill:#27abe3;fill-opacity:1" />
  </g>
</svg>
