<?xml version="1.0" encoding="UTF-8"?><svg id="Vrstva_1" xmlns="http://www.w3.org/2000/svg" xmlns:xlink="http://www.w3.org/1999/xlink" viewBox="0 0 800 429"><defs><style>.cls-1{fill:none;}.cls-1,.cls-2{stroke-width:0px;}.cls-2{fill:#fff;}.cls-3{clip-path:url(#clippath);}</style><clipPath id="clippath"><rect class="cls-1" x="19.79" y="30.33" width="760" height="374.67"/></clipPath></defs><g class="cls-3"><path class="cls-2" d="m576.5,144.64h42.06c1.64,0,6.05-.1,7.47-1.01.88-.58.99-2.97.99-3.86,0-3.26-.63-6.38-1.83-9.4-1.22-3.06-2.95-5.82-5.18-8.24-2.26-2.47-4.94-4.36-7.97-5.74-3.26-1.49-6.74-2.12-10.3-2.12s-6.67.59-9.8,1.92c-2.98,1.25-5.68,3-8,5.26-2.34,2.26-4.14,4.92-5.45,7.89-1.35,3.03-2,6.21-2,9.53v5.77Zm70.01-80.36c49.15,0,89,39.85,89,89s-39.85,89-89,89c-33.39,0-62.46-18.38-77.7-45.56.69.69,1.4,1.35,2.13,1.99,4.71,4.15,10.22,7.14,16.15,9.16,6.53,2.23,13.37,3.18,20.25,3.18,4.92,0,9.91-.43,14.69-1.65,3.78-.96,7.6-2.23,11.1-4.03,2.71-1.4,5.42-3.14,7.49-5.4,1.6-1.76,3.08-3.96,3.08-6.45,0-2.23-1.03-4.31-2.33-6.08-1.62-2.25-3.9-3.59-6.69-3.59-1.99,0-3.82.82-5.42,1.97-1.49,1.07-3.09,2.05-4.68,2.98-2.07,1.19-4.38,2.07-6.62,2.79-3.16.99-6.88,1.2-10.17,1.2-8.26,0-16.18-1.92-22.69-7.22-6.05-4.92-8.61-11.42-8.61-19.16v-5.55h47.88c2.49,0,4.96-.11,7.42-.35,2.71-.26,5.28-1.06,7.54-2.57,2.41-1.6,4.12-3.91,5.32-6.49,1.59-3.37,1.94-7.59,1.94-11.24,0-6.11-1.15-12.06-3.72-17.62-2.39-5.16-5.64-9.81-9.8-13.73-4.14-3.88-8.92-6.85-14.19-8.95-5.42-2.15-11.08-3.21-16.92-3.21s-12,1.12-17.62,3.45c-5.44,2.26-10.33,5.42-14.53,9.54-.74.72-1.46,1.48-2.15,2.25,14.9-28.34,44.61-47.66,78.83-47.66"/><path class="cls-2" d="m478.5,141.89h42.06c1.65,0,6.06-.1,7.47-1.03.9-.58.99-2.97.99-3.86,0-3.24-.61-6.38-1.81-9.4-1.23-3.06-2.97-5.81-5.2-8.24-2.25-2.45-4.92-4.36-7.97-5.74-3.24-1.48-6.72-2.1-10.28-2.1s-6.69.59-9.8,1.91c-3,1.27-5.69,3.01-8.02,5.28-2.33,2.26-4.14,4.91-5.45,7.87-1.35,3.03-2,6.22-2,9.53v5.79Zm0,16.23v5.55c0,7.75,2.57,14.22,8.63,19.15,6.49,5.31,14.42,7.23,22.69,7.23,3.27,0,7.01-.22,10.15-1.22,2.26-.71,4.57-1.6,6.62-2.77,1.6-.93,3.19-1.91,4.7-3,1.59-1.14,3.42-1.97,5.4-1.97,2.81,0,5.07,1.36,6.7,3.59,1.28,1.78,2.31,3.85,2.31,6.09,0,2.47-1.46,4.68-3.06,6.43-2.07,2.28-4.79,4.03-7.49,5.42-3.5,1.78-7.31,3.05-11.11,4.03-4.76,1.2-9.77,1.65-14.67,1.65-6.88,0-13.74-.95-20.27-3.18-5.93-2.04-11.42-5.02-16.15-9.16-4.57-4.01-8.11-8.84-10.65-14.37-2.69-5.87-3.83-12.17-3.83-18.6v-25.1c0-5.89,1.19-11.55,3.59-16.9,2.37-5.29,5.63-10.01,9.77-14.06,4.2-4.12,9.11-7.28,14.54-9.53,5.61-2.34,11.53-3.46,17.62-3.46s11.5,1.07,16.9,3.22c5.28,2.08,10.07,5.05,14.21,8.95,4.15,3.91,7.39,8.55,9.78,13.73,2.58,5.56,3.74,11.5,3.74,17.61,0,3.67-.37,7.89-1.94,11.24-1.22,2.6-2.93,4.89-5.34,6.49-2.26,1.51-4.83,2.33-7.52,2.58-2.47.22-4.96.35-7.42.35h-47.9Zm-64.56,50.18c-6.9,0-13.95-.9-20.38-3.45-5.5-2.18-10.47-5.31-14.54-9.62-3.91-4.17-6.75-9.04-8.55-14.46-1.92-5.72-2.73-11.74-2.73-17.77v-23.97c0-5.97.83-11.88,2.73-17.56,1.8-5.37,4.57-10.25,8.42-14.43,4.01-4.35,8.96-7.47,14.45-9.64,6.43-2.57,13.49-3.45,20.38-3.45,4.59,0,9.2.43,13.66,1.54,3.61.9,7.23,2.1,10.55,3.8,2.65,1.36,5.23,3.09,7.2,5.34,1.6,1.86,2.9,4.11,2.9,6.62s-.98,4.65-2.5,6.54c-1.72,2.1-3.99,3.37-6.72,3.37-1.86,0-3.54-.8-4.97-1.96-1.2-.96-2.6-1.8-3.96-2.53-1.97-1.06-4.15-1.89-6.27-2.6-2.89-.96-6.21-1.2-9.22-1.2-7.18,0-14.95,1.41-20.08,6.86-4.96,5.26-6.53,12.24-6.53,19.29v23.97c0,7.12,1.57,14.21,6.62,19.5,5.21,5.44,12.96,6.88,20.21,6.88,3.18,0,6.77-.22,9.8-1.2,2.13-.69,4.35-1.54,6.3-2.68,1.38-.8,2.77-1.68,4.03-2.68,1.51-1.2,3.26-1.96,5.18-1.96,2.89,0,5.36,1.14,7.1,3.43,1.46,1.89,2.36,4.07,2.36,6.48,0,2.57-1.4,4.83-3.06,6.66-2.05,2.25-4.7,3.99-7.36,5.4-3.42,1.8-7.18,3.03-10.94,3.93-4.6,1.11-9.37,1.54-14.08,1.54m-134.14-102.82c2.05-2.15,4.35-4.06,6.78-5.77,6.05-4.23,13.23-5.76,20.51-5.76,5.71,0,11.23,1.15,16.45,3.5,5.13,2.29,9.69,5.48,13.53,9.57,3.9,4.14,6.93,8.92,9.16,14.13,2.36,5.55,3.46,11.42,3.46,17.43v59.59c0,2.84-1.23,5.2-3.66,6.7-1.97,1.22-4.15,1.86-6.48,1.86s-4.35-.69-6.25-1.86c-2.42-1.51-3.66-3.86-3.66-6.7v-59.59c0-3.27-.71-6.43-2-9.43-1.35-3.08-3.16-5.85-5.5-8.26-2.34-2.42-5.07-4.36-8.1-5.84-3.03-1.49-6.27-2.18-9.65-2.18-3.01,0-5.93.59-8.74,1.7-2.87,1.14-5.4,2.81-7.59,5-2.34,2.34-4.14,5.12-5.48,8.13-1.52,3.43-2.12,7.15-2.12,10.87v59.59c0,2.49-1.22,4.55-3.09,6.13-2,1.68-4.43,2.44-7.02,2.44s-5.02-.75-6.98-2.49c-1.8-1.6-2.93-3.64-2.93-6.08v-94.76c0-2.53,1.09-4.67,3.14-6.14,1.99-1.43,4.35-1.97,6.77-1.97,2.29,0,4.43.63,6.3,1.97,2.05,1.48,3.14,3.61,3.14,6.14v2.07Zm-105.95,36.42h42.06c1.64,0,6.05-.1,7.47-1.03.88-.58.99-2.97.99-3.86,0-3.24-.63-6.38-1.83-9.4-1.22-3.06-2.95-5.81-5.18-8.24-2.26-2.45-4.94-4.36-7.97-5.74-3.26-1.48-6.74-2.1-10.3-2.1s-6.67.59-9.8,1.91c-2.98,1.27-5.68,3.01-8,5.28-2.34,2.26-4.14,4.91-5.45,7.87-1.35,3.03-2,6.22-2,9.53v5.79Zm0,16.23v5.55c0,7.75,2.57,14.22,8.61,19.15,6.51,5.31,14.43,7.23,22.69,7.23,3.29,0,7.01-.22,10.17-1.22,2.25-.71,4.57-1.6,6.62-2.77,1.59-.93,3.19-1.91,4.68-3,1.6-1.14,3.43-1.97,5.42-1.97,2.79,0,5.07,1.36,6.69,3.59,1.3,1.78,2.33,3.85,2.33,6.09,0,2.47-1.48,4.68-3.08,6.43-2.07,2.28-4.78,4.03-7.49,5.42-3.5,1.78-7.31,3.05-11.1,4.03-4.78,1.2-9.77,1.65-14.69,1.65-6.88,0-13.73-.95-20.25-3.18-5.93-2.04-11.43-5.02-16.15-9.16-4.57-4.01-8.13-8.84-10.66-14.37-2.68-5.87-3.83-12.17-3.83-18.6v-25.1c0-5.89,1.2-11.55,3.61-16.9,2.36-5.29,5.63-10.01,9.77-14.06,4.2-4.12,9.09-7.28,14.53-9.53,5.63-2.34,11.55-3.46,17.62-3.46s11.5,1.07,16.92,3.22c5.28,2.08,10.05,5.05,14.19,8.95,4.15,3.91,7.41,8.55,9.8,13.73,2.57,5.56,3.72,11.5,3.72,17.61,0,3.67-.35,7.89-1.94,11.24-1.2,2.6-2.92,4.89-5.32,6.49-2.26,1.51-4.83,2.33-7.54,2.58-2.47.22-4.94.35-7.42.35h-47.88Zm-60.49-62.83h29.3c2.42,0,4.54.93,6,2.89,1.25,1.67,1.89,3.59,1.89,5.68s-.59,4.17-1.84,5.95c-1.44,2.04-3.56,3.06-6.05,3.06h-29.3v85.52c0,2.63-1.27,4.78-3.4,6.27-2.07,1.44-4.46,2.07-6.96,2.07s-4.68-.66-6.61-2.15c-1.99-1.54-3.06-3.67-3.06-6.19v-124.1c0-5.92,1.12-11.67,3.46-17.11,2.23-5.15,5.28-9.85,9.17-13.9,3.86-4.04,8.4-7.18,13.5-9.46,5.23-2.33,10.74-3.48,16.47-3.48h5.6c2.65,0,4.99.95,6.7,3,1.54,1.84,2.31,4.04,2.31,6.46s-.82,4.43-2.31,6.22c-1.72,2.05-4.06,3-6.7,3h-3.8c-3.35,0-6.57.61-9.62,2-2.89,1.3-5.48,3.08-7.68,5.34-2.2,2.26-3.91,4.84-5.18,7.71-1.28,2.9-1.89,5.93-1.89,9.09v22.13Z"/><path class="cls-2" d="m754.29,367.22c-9.25,0-13.34-7.67-13.34-17.22s4.3-17.22,13.86-17.22c8.93,0,12.51,6.93,12.51,17.22s-3.46,17.22-13.02,17.22m13.02-45.57v3.16c-3.78-3.05-8.72-4.73-14.61-4.73-16.28,0-26.86,12.59-26.86,29.92s10.49,29.91,26.12,29.91c5.37,0,9.88-1.25,13.55-3.56v5.66c.22,6.32-5.77,9.57-12.17,9.57-3.99,0-7.68-1.8-9.46-5.15l-13.21,6.4c4.3,7.34,12.89,12.17,22.56,12.17,12.51,0,23-4.71,25.72-15.11.63-2.42.83-4.84.83-7.68v-60.57h-12.48Zm-59.13,4.52c-5.45-5.36-12.27-6.51-19-6.09-5.15.32-10.92,2.21-14.59,6.61-.21.32-.53.64-.74.85v-5.89h-12.59v56.69h14.37v-24.66c0-3.9.11-8.31.64-10.82.63-3.14,2.1-5.66,4.2-7.25,1.89-1.36,4.09-2.1,6.72-2.2,3.88-.11,6.93,1.04,8.93,3.26,2.93,3.14,3.78,9.03,3.78,14.91v26.76h14.46v-27.41c0-8.82,0-18.68-6.19-24.76m-77.09-4.52h14.27v56.69h-14.27v-56.69Zm0-7.87h14.27v-12.59h-14.27v12.59Zm-11.96,25.19c-2.52-11.64-12.19-18.89-25.51-18.89-17.32,0-28.34,12.7-28.34,29.92s10.49,29.91,28.13,29.91c13.12,0,22.47-6.7,25.72-18.78l-14.59-3.05c-1.68,5.47-4.73,8.52-11.13,8.52-8.61,0-13.02-6.74-13.02-16.6s3.99-16.6,13.02-16.6c5.24,0,9.77,3.46,11.43,9.35l14.29-3.78Zm-71.33-12.8c-5.45-5.36-12.27-6.51-19-6.09-5.15.32-10.92,2.21-14.59,6.61-.21.32-.53.64-.74.85v-5.89h-12.59v56.69h14.37v-24.66c0-3.9.11-8.31.64-10.82.63-3.14,2.1-5.66,4.2-7.25,1.89-1.36,4.09-2.1,6.72-2.2,3.88-.11,6.93,1.04,8.93,3.26,2.93,3.14,3.78,9.03,3.78,14.91v26.76h14.46v-27.41c0-8.82,0-18.68-6.19-24.76m-85.78,6.29c8.08,0,11.13,3.78,12.08,10.5h-24.89c1.36-6.3,5.15-10.5,12.81-10.5m-13.23,21.52h39.8c1.57-19.74-7.99-33.9-26.57-33.9-17.22,0-28.67,12.27-28.67,30.65,0,16.92,11.77,29.19,29.51,29.19,10.62,0,21.01-6.08,25.21-16.37l-14.27-4.09c-2.21,4.73-6.53,7.15-11.77,7.15-7.67,0-12.19-4.73-13.23-12.62m-27.41-41.26h6.51v-11.53h-7.02c-4.11,0-11.34-.64-16.58,5.24-3.99,4.39-3.78,10.92-3.78,15.22h-8.92v11.02h8.92v45.67h14.27v-45.67h13.12v-11.02h-13.12v-3.14c0-3.16,2.1-5.79,6.61-5.79m-72.6-11.53h14.27v77.15h-14.27v-77.15Zm-31.19,60.78c-2.31,3.78-7.36,6.83-12.6,6.83-5.56,0-8.1-3.26-8.1-6.3,0-3.78,3.05-5.77,7.25-6.93,4.41-1.27,7.78-1.89,15.35-3.16,0,2.63-.21,6.72-1.89,9.56m16.05,16.37v-33.8c0-3.88-.32-7.34-1.27-10.3-3.03-9.33-10.9-14.16-22.77-14.16-12.6,0-20.9,7.46-24.66,16.05l12.8,3.88c1.99-4.71,6.51-6.93,11.45-6.93s9.56,2,10.3,7.78c-9.25,1.36-19.02,2.41-26.36,5.66-5.87,2.63-10.18,7.36-10.18,15.65,0,10.62,7.25,17.74,18.68,17.74,9.67,0,14.61-2.82,19.55-8.48v6.91h12.48Zm-77.28-56.69v24.68c0,3.88-.1,8.29-.63,10.81-.63,3.16-2.1,5.68-4.2,7.25-1.89,1.36-4.11,2.1-6.72,2.21-3.9.1-6.94-1.06-8.93-3.26-2.95-3.16-3.78-9.03-3.78-14.91v-26.78h-14.48v27.41c0,8.82,0,18.7,6.19,24.78,5.45,5.34,12.28,6.49,19,6.08,5.15-.3,10.92-2.2,14.61-6.61.21-.3.51-.63.72-.83v5.87h12.59v-56.69h-14.37Zm-66.23,11.02h16.39v-11.02h-16.39v-15.75h-14.26v15.75h-9.67v11.02h9.67v21.63c0,6.82-.64,12.7,2.52,17.32,3.03,4.52,6.29,6.19,11.53,7.14,4.2.72,12.19.82,16.6-.43v-11.83c-3.05.42-6.51.63-9.25.42-2.2-.21-4.62-1.06-5.98-3.26-1.36-2.1-1.15-5.77-1.15-10.18v-20.8Zm-44.89-8.29c-2.63,1.68-4.63,3.78-6.09,6.41v-9.16h-12.59v56.7h14.37v-28.96c0-6.72,2.84-11.13,7.78-13.44,3.35-1.57,7.97-1.89,11.13-.95v-13.36c-5.15-.63-10.5.22-14.59,2.74m-48.85-2.73h14.27v56.69h-14.27v-56.69Zm0-7.87h14.27v-12.59h-14.27v12.59Zm-53.54,64.56h21.31l23.09-75.58h-14.71l-19.2,62.16-18.91-62.16h-14.69l23.09,75.58Z"/></g></svg>