<?xml version="1.0" encoding="UTF-8"?><svg id="Vrstva_1" xmlns="http://www.w3.org/2000/svg" xmlns:xlink="http://www.w3.org/1999/xlink" viewBox="0 0 377 429"><defs><style>.cls-1{fill:none;}.cls-1,.cls-2{stroke-width:0px;}.cls-2{fill:#27abe3;}.cls-3{clip-path:url(#clippath);}</style><clipPath id="clippath"><rect class="cls-1" x="40.74" y="40.33" width="289.26" height="353.73"/></clipPath></defs><g class="cls-3"><path class="cls-2" d="m329.96,185.44c-.2,29.12-8.57,56.01-22.26,81.4-21.54,39.98-51.83,72.58-86.28,101.55-9.72,8.18-20.03,15.67-30.21,23.3-4.26,3.2-7.77,3.11-12.09.03-41.69-29.72-78.4-64.42-106.39-107.68-14.87-22.98-26.44-47.55-30.21-74.93-8.31-60.45,12.23-109.5,62.38-143.78,82.56-56.44,195.68-12.59,220.37,84.47,2.94,11.57,5.04,35.6,4.69,35.65"/></g></svg>